<svg id="visual" viewBox="0 0 900 600" width="900" height="600" xmlns="http://www.w3.org/2000/svg" xmlns:xlink="http://www.w3.org/1999/xlink" version="1.1"><rect x="0" y="0" width="900" height="600" fill="#001220"></rect><defs><linearGradient id="grad1_0" x1="33.3%" y1="0%" x2="100%" y2="100%"><stop offset="20%" stop-color="#001220" stop-opacity="1"></stop><stop offset="80%" stop-color="#001220" stop-opacity="1"></stop></linearGradient></defs><defs><linearGradient id="grad2_0" x1="0%" y1="0%" x2="66.7%" y2="100%"><stop offset="20%" stop-color="#001220" stop-opacity="1"></stop><stop offset="80%" stop-color="#001220" stop-opacity="1"></stop></linearGradient></defs><g transform="translate(900, 0)"><path d="M0 486.7C-43.5 474.5 -87.1 462.2 -116.2 433.7C-145.3 405.2 -160.1 360.3 -201.5 349C-242.9 337.7 -311.1 359.8 -340.1 340.1C-369.1 320.4 -358.9 258.9 -378.5 218.5C-398 178.1 -447.2 158.9 -470.2 126C-493.2 93.1 -490 46.5 -486.7 0L0 0Z" fill="#e43f5a"></path></g><g transform="translate(0, 600)"><path d="M0 -486.7C31.8 -442.8 63.6 -398.8 105.6 -394.1C147.6 -389.4 199.9 -423.9 243.4 -421.5C286.8 -419.2 321.4 -379.9 337.3 -337.3C353.2 -294.7 350.5 -248.6 370.7 -214C390.8 -179.4 433.7 -156.2 456.9 -122.4C480 -88.7 483.4 -44.3 486.7 0L0 0Z" fill="#e43f5a"></path></g></svg>