<svg width="1440" height="560" preserveAspectRatio="none" viewBox="0 0 1440 560"><g mask="url(&quot;#SvgjsMask1000&quot;)" fill="none"><rect width="1440" height="560" x="0" y="0" fill="#0e2a47"></rect><path d="M0,337.471C76.382,350.908,161.496,394.725,227.368,353.791C293.131,312.925,289.541,216.732,313.024,142.953C333.552,78.458,367.891,15.454,356.279,-51.225C344.799,-117.145,282.782,-158.403,250.35,-216.93C206.784,-295.55,215.986,-418.66,133.23,-453.739C53.036,-487.732,-33.938,-414.261,-108.34,-368.974C-168.842,-332.148,-208.095,-273.979,-252.608,-218.886C-295.465,-165.843,-339.67,-116.004,-364.155,-52.358C-393.847,24.823,-448.311,114.065,-408.605,186.604C-368.322,260.197,-259.883,252.861,-181.179,281.92C-120.696,304.252,-63.499,326.3,0,337.471" fill="#0b2239"></path><path d="M1440 1036.022C1570.386 1072.658 1693.654 1199.315 1820.693 1152.371 1942.888 1107.217 1988.335 950.387 2016.154 823.121 2041.033 709.302 1979.9450000000002 600.022 1966.731 484.26800000000003 1952.989 363.885 2013.042 223.68200000000002 1936.96 129.382 1861.008 35.24199999999996 1713.913 56.27199999999999 1596.851 25.815000000000055 1484.0720000000001-3.52800000000002 1375.441-72.87900000000002 1261.994-46.23299999999995 1146.7640000000001-19.168000000000006 1068.987 81.988 988.435 168.71699999999998 905.192 258.344 818.038 347.88800000000003 786.241 466.004 752.242 592.301 725.173 746.4010000000001 805.04 849.977 886.07 955.0609999999999 1048.421 933.847 1175.7640000000001 971.159 1264.597 997.187 1350.883 1010.982 1440 1036.022" fill="#113255"></path></g><defs><mask id="SvgjsMask1000"><rect width="1440" height="560" fill="#ffffff"></rect></mask></defs></svg>