<svg xmlns="http://www.w3.org/2000/svg" version="1.1" xmlns:xlink="http://www.w3.org/1999/xlink" xmlns:svgjs="http://svgjs.com/svgjs" width="1440" height="560" preserveAspectRatio="none" viewBox="0 0 1440 560"><g mask="url(&quot;#SvgjsMask1067&quot;)" fill="none"><rect width="1440" height="560" x="0" y="0" fill="rgba(34, 40, 49, 1)"></rect><path d="M359 140L358 407" stroke-width="6" stroke="url(#SvgjsLinearGradient1068)" stroke-linecap="round" class="Up"></path><path d="M193 357L192 509" stroke-width="10" stroke="url(#SvgjsLinearGradient1069)" stroke-linecap="round" class="Down"></path><path d="M536 455L535 197" stroke-width="10" stroke="url(#SvgjsLinearGradient1068)" stroke-linecap="round" class="Up"></path><path d="M1042 315L1041 -47" stroke-width="10" stroke="url(#SvgjsLinearGradient1069)" stroke-linecap="round" class="Down"></path><path d="M1268 154L1267 -111" stroke-width="10" stroke="url(#SvgjsLinearGradient1069)" stroke-linecap="round" class="Down"></path><path d="M961 211L960 -203" stroke-width="8" stroke="url(#SvgjsLinearGradient1070)" stroke-linecap="round" class="Up"></path><path d="M238 302L237 -40" stroke-width="6" stroke="url(#SvgjsLinearGradient1070)" stroke-linecap="round" class="Up"></path><path d="M786 400L785 761" stroke-width="8" stroke="url(#SvgjsLinearGradient1069)" stroke-linecap="round" class="Down"></path><path d="M1102 462L1101 854" stroke-width="8" stroke="url(#SvgjsLinearGradient1071)" stroke-linecap="round" class="Down"></path><path d="M318 511L317 277" stroke-width="10" stroke="url(#SvgjsLinearGradient1068)" stroke-linecap="round" class="Up"></path><path d="M315 455L314 690" stroke-width="8" stroke="url(#SvgjsLinearGradient1071)" stroke-linecap="round" class="Down"></path><path d="M1297 389L1296 536" stroke-width="10" stroke="url(#SvgjsLinearGradient1070)" stroke-linecap="round" class="Up"></path><path d="M307 406L306 600" stroke-width="6" stroke="url(#SvgjsLinearGradient1069)" stroke-linecap="round" class="Down"></path><path d="M684 229L683 558" stroke-width="6" stroke="url(#SvgjsLinearGradient1069)" stroke-linecap="round" class="Down"></path><path d="M1376 129L1375 398" stroke-width="10" stroke="url(#SvgjsLinearGradient1070)" stroke-linecap="round" class="Up"></path><path d="M233 525L232 135" stroke-width="6" stroke="url(#SvgjsLinearGradient1070)" stroke-linecap="round" class="Up"></path><path d="M966 139L965 433" stroke-width="6" stroke="url(#SvgjsLinearGradient1069)" stroke-linecap="round" class="Down"></path><path d="M123 421L122 622" stroke-width="8" stroke="url(#SvgjsLinearGradient1070)" stroke-linecap="round" class="Up"></path><path d="M627 178L626 398" stroke-width="8" stroke="url(#SvgjsLinearGradient1070)" stroke-linecap="round" class="Up"></path><path d="M248 558L247 728" stroke-width="6" stroke="url(#SvgjsLinearGradient1071)" stroke-linecap="round" class="Down"></path><path d="M132 93L131 512" stroke-width="6" stroke="url(#SvgjsLinearGradient1071)" stroke-linecap="round" class="Down"></path><path d="M425 150L424 320" stroke-width="10" stroke="url(#SvgjsLinearGradient1071)" stroke-linecap="round" class="Down"></path><path d="M1433 256L1432 -80" stroke-width="8" stroke="url(#SvgjsLinearGradient1071)" stroke-linecap="round" class="Down"></path><path d="M440 62L439 222" stroke-width="6" stroke="url(#SvgjsLinearGradient1070)" stroke-linecap="round" class="Up"></path><path d="M1070 492L1069 801" stroke-width="10" stroke="url(#SvgjsLinearGradient1069)" stroke-linecap="round" class="Down"></path><path d="M120 123L119 -136" stroke-width="8" stroke="url(#SvgjsLinearGradient1071)" stroke-linecap="round" class="Down"></path><path d="M1328 430L1327 275" stroke-width="10" stroke="url(#SvgjsLinearGradient1070)" stroke-linecap="round" class="Up"></path><path d="M1129 198L1128 482" stroke-width="10" stroke="url(#SvgjsLinearGradient1068)" stroke-linecap="round" class="Up"></path><path d="M131 5L130 -379" stroke-width="10" stroke="url(#SvgjsLinearGradient1068)" stroke-linecap="round" class="Up"></path><path d="M931 192L930 427" stroke-width="8" stroke="url(#SvgjsLinearGradient1069)" stroke-linecap="round" class="Down"></path><path d="M108 110L107 -44" stroke-width="6" stroke="url(#SvgjsLinearGradient1068)" stroke-linecap="round" class="Up"></path><path d="M1194 66L1193 -344" stroke-width="6" stroke="url(#SvgjsLinearGradient1069)" stroke-linecap="round" class="Down"></path><path d="M1156 347L1155 728" stroke-width="6" stroke="url(#SvgjsLinearGradient1071)" stroke-linecap="round" class="Down"></path><path d="M818 376L817 153" stroke-width="10" stroke="url(#SvgjsLinearGradient1070)" stroke-linecap="round" class="Up"></path><path d="M469 130L468 400" stroke-width="6" stroke="url(#SvgjsLinearGradient1069)" stroke-linecap="round" class="Down"></path><path d="M1186 500L1185 816" stroke-width="8" stroke="url(#SvgjsLinearGradient1071)" stroke-linecap="round" class="Down"></path></g><defs><mask id="SvgjsMask1067"><rect width="1440" height="560" fill="#ffffff"></rect></mask><linearGradient x1="0%" y1="100%" x2="0%" y2="0%" id="SvgjsLinearGradient1068"><stop stop-color="rgba(57, 62, 70, 0)" offset="0"></stop><stop stop-color="rgba(57, 62, 70, 1)" offset="1"></stop></linearGradient><linearGradient x1="0%" y1="0%" x2="0%" y2="100%" id="SvgjsLinearGradient1069"><stop stop-color="rgba(95, 98, 129, 0)" offset="0"></stop><stop stop-color="rgba(95, 98, 129, 1)" offset="1"></stop></linearGradient><linearGradient x1="0%" y1="100%" x2="0%" y2="0%" id="SvgjsLinearGradient1070"><stop stop-color="rgba(95, 98, 129, 0)" offset="0"></stop><stop stop-color="rgba(95, 98, 129, 1)" offset="1"></stop></linearGradient><linearGradient x1="0%" y1="0%" x2="0%" y2="100%" id="SvgjsLinearGradient1071"><stop stop-color="rgba(57, 62, 70, 0)" offset="0"></stop><stop stop-color="rgba(57, 62, 70, 1)" offset="1"></stop></linearGradient></defs></svg>